<svg xmlns="http://www.w3.org/2000/svg" viewBox="0 0 599.12 148.63"><defs><style>.cls-1{fill:#fff;}</style></defs><g id="Layer_2" data-name="Layer 2"><g id="Layer_1-2" data-name="Layer 1"><path class="cls-1" d="M63.78,55.58,69,36.7h42L92.29,87.54S59.8,101.58,21,93.4C-26.07,83.47,4.92-21.07,124.29,4.92L116.9,25.64s-20.5-10-47.37-3.89S36,60.49,49.38,65c4,1.33,5.94,3.12,20.71,2.52l4.65-11.91Z"/><polygon class="cls-1" points="98.19 94.85 131.84 0.6 167.21 0.6 141.79 94.85 98.19 94.85"/><polygon class="cls-1" points="150.07 94.96 175.07 0.6 246 0.6 244.02 18.53 206.64 18.55 202.48 33.57 242.57 33.51 240.95 51.55 198.96 51.14 195.1 69.44 240.97 69.56 238.42 94.85 150.07 94.96"/><polygon class="cls-1" points="367.49 94.96 354.95 0.6 389.45 0.6 397.07 36.45 430.14 0.6 470.31 0.6 437.05 40.43 506.04 91.47 472.79 0.6 546.18 0.7 555.89 19.53 516.93 19.41 523.21 33.47 562.02 33.47 572.8 51.57 531 51.57 540.11 69.43 585.07 69.43 599.12 94.96 460.21 94.96 400.95 51.14 409.7 94.96 367.49 94.96"/><path class="cls-1" d="M335,44c9.06-4.6,16.26-17.55,4.81-32.67S251.1.6,251.1.6L244.68,95H285l1.38-44.27c3.69-3.24,16.09,2.64,18.44,5.73S325.32,95,325.32,95h41.27ZM287.06,34.5V15.8s22.24-3.36,23.55,7.79S300.44,34.93,287.06,34.5Z"/><path d="M49.33,148.11H30.27v-7.8h3.17v-17H30.27v-7.8h20q6.9,0,10.08,1.33A10,10,0,0,1,65,120.55a9.32,9.32,0,0,1,1.5,5.13,9,9,0,0,1-1.78,5.72A10.07,10.07,0,0,1,60,134.73a29,29,0,0,1-8.91,1H46v4.57h3.29ZM46,122.66v6.11h2.47a8.76,8.76,0,0,0,3.75-.6,2.45,2.45,0,0,0,1.12-2.37,3.09,3.09,0,0,0-.61-2,2.58,2.58,0,0,0-1.57-1,16.57,16.57,0,0,0-3.19-.21Z"/><path d="M68,123.31H65.48v-7.8H82.17v7.8H80.62v11q0,3.93.75,5.36a2.79,2.79,0,0,0,2.7,1.41,2.52,2.52,0,0,0,2.34-1.2c.49-.78.73-2.38.73-4.8V123.31H85.5v-7.8H97.76v7.8H95.18v11.82a18,18,0,0,1-1.31,7.4A9.54,9.54,0,0,1,89.51,147a15.81,15.81,0,0,1-7.5,1.62,21.15,21.15,0,0,1-6.35-.87,9.87,9.87,0,0,1-4.46-2.58A10.4,10.4,0,0,1,68.79,141a24.47,24.47,0,0,1-.8-7.26Z"/><path d="M110.19,148.11H97.56v-7.8h2.5v-17H97.49v-7.8h19.66l4.8,12.58,4.93-12.58h19.54v7.8h-2.55v17h2.62v7.8h-17v-7.8h2.6V122.09l-9.84,26h-4.88l-9.75-25.78v18h2.58Z"/><path d="M165.74,148.11H146.68v-7.8h3.17v-17h-3.17v-7.8h20q6.88,0,10.07,1.33a10,10,0,0,1,4.69,3.71,9.32,9.32,0,0,1,1.5,5.13,9,9,0,0,1-1.78,5.72,10.07,10.07,0,0,1-4.71,3.33,29,29,0,0,1-8.91,1h-5.08v4.57h3.28Zm-3.28-25.45v6.11h2.46a8.7,8.7,0,0,0,3.75-.6,2.45,2.45,0,0,0,1.12-2.37,3.09,3.09,0,0,0-.61-2,2.58,2.58,0,0,0-1.57-1,16.45,16.45,0,0,0-3.18-.21Z"/><path d="M189.72,148.11h-7.34V137.66h7.34q1.31,4.26,4.94,4.26c1.75,0,2.63-.7,2.63-2.11a2.23,2.23,0,0,0-.92-1.82,21,21,0,0,0-4.15-2.21,39.08,39.08,0,0,1-5.85-3.11,10,10,0,0,1-3-3.31,9.67,9.67,0,0,1,1.71-11.72,10.6,10.6,0,0,1,7.21-2.55,11.12,11.12,0,0,1,7.27,2.43v-2h7.38v9.28h-7.29c-.89-2.56-2.46-3.84-4.73-3.84-1.59,0-2.39.68-2.39,2a1.71,1.71,0,0,0,.68,1.47,35.83,35.83,0,0,0,4.24,2.28,63.4,63.4,0,0,1,6.42,3.49,8.4,8.4,0,0,1,1.68,1.51,11.66,11.66,0,0,1,1.42,2,10,10,0,0,1,1.29,5,9.12,9.12,0,0,1-3,6.94,10.74,10.74,0,0,1-7.69,2.88,12.9,12.9,0,0,1-7.8-2.55Z"/><path d="M250.25,140.31h5v7.8H241.46l-2-2.48a18.81,18.81,0,0,1-10.83,3q-6.09,0-9.07-2.72a9.07,9.07,0,0,1-2.95-7,9.64,9.64,0,0,1,2.86-6.86,15.07,15.07,0,0,1,7.26-4.18,10.76,10.76,0,0,1-1.4-5.18,7,7,0,0,1,2.67-5.64q2.63-2.2,8.6-2.21c1.45,0,3.14.08,5.06.24v6.77a5,5,0,0,0-.56,0q-3.12,0-3.12,2.22c0,.69.61,1.78,1.81,3.26l3.37,4.24a36.55,36.55,0,0,0,3.87-7.17h8.18v8.42h-3.73a20.67,20.67,0,0,1-3.44,4.71Zm-14.58.44-5.83-7.43a4.53,4.53,0,0,0-3,4.41,5.06,5.06,0,0,0,1.31,3.4,4.13,4.13,0,0,0,3.28,1.5A6.35,6.35,0,0,0,235.67,140.75Z"/><path d="M282.08,148.11H263.49v-7.8h3v-17h-3v-7.8h18.59v7.8h-3v17h3Z"/><path d="M300,148.11H282.3v-7.8h2.64v-17H282.3v-7.8H300c1.6,0,3.08,0,4.43.08s2.53.13,3.5.24a23.51,23.51,0,0,1,2.67.41,9.81,9.81,0,0,1,5.55,3.16,8.65,8.65,0,0,1,2.16,5.86,8.39,8.39,0,0,1-1.31,4.59,7.93,7.93,0,0,1-3.45,3l4.5,7.46h2.35v7.8H308.66l-7.1-13.31h-4v5.51H300Zm-2.46-25.45v6.21H299a27.21,27.21,0,0,0,3.75-.17,3,3,0,0,0,1.78-.93,2.69,2.69,0,0,0,.73-2,2.74,2.74,0,0,0-.73-2,3,3,0,0,0-1.85-.94,31.13,31.13,0,0,0-3.94-.16Z"/><path d="M337.41,148.11H319.69v-7.8h2.65v-17h-2.65v-7.8h17.72c1.59,0,3.07,0,4.43.08s2.52.13,3.49.24a23.51,23.51,0,0,1,2.67.41,9.81,9.81,0,0,1,5.55,3.16,8.65,8.65,0,0,1,2.16,5.86,8.39,8.39,0,0,1-1.31,4.59,7.87,7.87,0,0,1-3.45,3l4.5,7.46h2.35v7.8H346.05L339,134.8h-4v5.51h2.46ZM335,122.66v6.21h1.4a27,27,0,0,0,3.75-.17,3,3,0,0,0,1.78-.93,2.69,2.69,0,0,0,.73-2,2.74,2.74,0,0,0-.73-2,3,3,0,0,0-1.85-.94,31.13,31.13,0,0,0-3.94-.16Z"/><path d="M375.24,148.11H356.66v-7.8h3v-17h-3v-7.8h18.58v7.8h-3v17h3Z"/><path d="M400.17,136.88h-3.33V130.7h14.58a30.9,30.9,0,0,1-.75,7.94,14.51,14.51,0,0,1-8.56,8.81,20,20,0,0,1-6.94,1.18,26.31,26.31,0,0,1-10-1.83,13.8,13.8,0,0,1-7-5.91,17.09,17.09,0,0,1-2.48-9.09,16,16,0,0,1,5-12.28,17.17,17.17,0,0,1,12.19-4.67q6,0,9.45,2.93v-2.27h7.85V126.9h-7.85a7.78,7.78,0,0,0-2.69-3.19,6.86,6.86,0,0,0-3.85-1.08,5.25,5.25,0,0,0-4.55,2q-1.42,2-1.43,7.41t1.5,7.28a5.29,5.29,0,0,0,4.43,1.95Q400.17,141.29,400.17,136.88Z"/><path d="M423.73,148.11H410.82v-7.8h2.48l6.12-17h-2.63v-7.8h23.44v7.8h-2.62l6.23,17h2.39v7.8h-17V141h2.86l-1.25-4.1h-8.34l-1.43,4.1h2.67Zm3.07-24.33-3.07,9h5.84Z"/><path d="M467.94,148.11h-18.3v-7.8h2.81v-17H448.7v5.93h-6.11V115.51h32.32v13.73h-6.12v-5.93h-3.73v17h2.88Z"/><path d="M493.43,148.11H474.84v-7.8h3v-17h-3v-7.8h18.59v7.8h-3v17h3Z"/><path d="M493.93,131.73a17,17,0,0,1,2-7.9,16.75,16.75,0,0,1,6.12-6.4,15.34,15.34,0,0,1,3-1.45,19.43,19.43,0,0,1,3.38-.83,23.76,23.76,0,0,1,3.85-.3q8.76,0,13.57,5.14a18,18,0,0,1,3.61,5.48,16.65,16.65,0,0,1-3.75,18.12q-5,5-13.43,5-8.19,0-13.27-4.74A15.77,15.77,0,0,1,493.93,131.73Zm14.16,0c0,3.62.35,6.07,1.05,7.33a3.35,3.35,0,0,0,3.17,1.93,3.42,3.42,0,0,0,3.18-1.86c.71-1.25,1.06-3.71,1.06-7.4s-.34-6-1-7.31a3.37,3.37,0,0,0-3.21-1.93,3.44,3.44,0,0,0-3.17,1.85Q508.09,126.2,508.09,131.73Z"/><path d="M544.42,148.11H531v-7.8h2.86v-17H531v-7.8h15.45l11.86,17v-9.24H555.7v-7.8h13.15v7.8H566v25.22H555.28l-13.74-19.71v11.49h2.88Z"/></g></g></svg>